<svg width="14" height="14" viewBox="0 0 14 14" fill="none" xmlns="http://www.w3.org/2000/svg">
<g clip-path="url(#clip0_13353_6888)">
<path d="M7.58322 0.583008C8.88113 0.583008 9.75672 1.67384 10.2677 2.69059C10.7974 3.74701 11.0832 5.00292 11.0832 5.83301C11.0832 6.58084 10.9916 7.31234 10.8172 8.00884C11.5851 8.26305 12.2515 8.75614 12.7191 9.41606C13.1868 10.076 13.4312 10.8681 13.4165 11.6768C13.4137 11.8315 13.3495 11.9788 13.2381 12.0862C13.1266 12.1935 12.9771 12.2522 12.8224 12.2494C12.6677 12.2465 12.5205 12.1823 12.4131 12.0709C12.3057 11.9595 12.247 11.81 12.2499 11.6553C12.26 11.0965 12.0916 10.5491 11.7691 10.0927C11.4465 9.63631 10.9868 9.29476 10.4567 9.11776C9.44988 11.608 7.28572 13.4163 4.38072 13.4163C3.70055 13.4163 2.82322 13.4198 2.1168 13.2559C1.76097 13.1731 1.38705 13.0348 1.09305 12.784C0.93019 12.6474 0.799897 12.4762 0.71169 12.2829C0.623483 12.0895 0.579589 11.8788 0.583216 11.6663C0.583216 11.3747 0.639216 11.0935 0.792049 10.845C0.946049 10.5953 1.16305 10.4349 1.38297 10.3241C1.59472 10.2179 1.83563 10.1433 2.0678 10.0797C2.18622 10.047 2.31397 10.0155 2.4423 9.98167C2.5718 9.94842 2.70655 9.91284 2.84772 9.87376L2.84947 9.87317C4.26113 9.48409 5.36188 8.62951 6.03097 7.55501C5.85758 7.49764 5.67931 7.45625 5.49838 7.43134C4.59655 7.30709 3.5588 7.55384 2.62255 8.08934C2.55596 8.12951 2.48201 8.15596 2.40505 8.16714C2.32809 8.17831 2.24968 8.17398 2.17442 8.15441C2.09915 8.13484 2.02856 8.10042 1.9668 8.05316C1.90503 8.00591 1.85334 7.94679 1.81475 7.87927C1.77617 7.81175 1.75148 7.7372 1.74213 7.66C1.73278 7.58279 1.73896 7.5045 1.76031 7.42972C1.78165 7.35494 1.81774 7.28519 1.86644 7.22456C1.91514 7.16393 1.97547 7.11365 2.04388 7.07667C3.1493 6.44492 4.44488 6.10892 5.65763 6.27634C5.9563 6.31717 6.24738 6.39009 6.52738 6.49392C6.83452 5.55897 6.83616 4.55053 6.53205 3.61459V3.61167C6.34597 3.02776 6.22288 2.36334 6.29813 1.80917C6.33605 1.52801 6.4323 1.21942 6.65513 0.973841C6.8943 0.710174 7.22097 0.583008 7.58322 0.583008ZM7.02905 8.15759C6.20188 9.48759 4.84972 10.5323 3.15863 10.9984V10.9973C3.01762 11.0365 2.87625 11.0744 2.73455 11.111C2.60213 11.1454 2.48488 11.1752 2.37638 11.2049C2.15472 11.2662 2.00888 11.3158 1.90797 11.3659C1.81463 11.4126 1.79247 11.4447 1.78547 11.4569C1.7773 11.4698 1.74988 11.5211 1.74988 11.6663C1.74988 11.7818 1.7843 11.8408 1.8508 11.8973C1.94063 11.9749 2.10747 12.0548 2.38047 12.119C2.93055 12.2462 3.6603 12.2497 4.38072 12.2497C6.57813 12.2497 8.32988 10.9518 9.23697 9.01101C8.95643 9.05308 8.68457 9.14035 8.43196 9.26942C8.36331 9.30443 8.28841 9.3255 8.21157 9.33142C8.13473 9.33734 8.05749 9.328 7.98428 9.30392C7.91107 9.27984 7.84335 9.24151 7.78503 9.19114C7.72671 9.14077 7.67894 9.07935 7.64447 9.01042C7.48949 8.69311 7.28135 8.40467 7.02905 8.15759ZM7.53538 1.75259L7.51963 1.75784C7.51263 1.76542 7.47413 1.81734 7.45372 1.96609C7.41288 2.27059 7.4788 2.74134 7.6433 3.25934C8.04886 4.50337 8.02006 5.84823 7.56163 7.07376C7.88013 7.32634 8.1683 7.63842 8.41622 8.01467C8.81869 7.87922 9.24108 7.81237 9.66572 7.81692C9.82905 7.19334 9.91655 6.52717 9.91655 5.83301C9.91655 5.20476 9.68263 4.12734 9.22413 3.21501C8.7458 2.26242 8.16363 1.74967 7.58322 1.74967C7.5672 1.74943 7.55119 1.7506 7.53538 1.75317V1.75259Z" fill="black"/>
<path d="M7.58322 0.583008C8.88113 0.583008 9.75672 1.67384 10.2677 2.69059C10.7974 3.74701 11.0832 5.00292 11.0832 5.83301C11.0832 6.58084 10.9916 7.31234 10.8172 8.00884C11.5851 8.26305 12.2515 8.75614 12.7191 9.41606C13.1868 10.076 13.4312 10.8681 13.4165 11.6768C13.4137 11.8315 13.3495 11.9788 13.2381 12.0862C13.1266 12.1935 12.9771 12.2522 12.8224 12.2494C12.6677 12.2465 12.5205 12.1823 12.4131 12.0709C12.3057 11.9595 12.247 11.81 12.2499 11.6553C12.26 11.0965 12.0916 10.5491 11.7691 10.0927C11.4465 9.63631 10.9868 9.29476 10.4567 9.11776C9.44988 11.608 7.28572 13.4163 4.38072 13.4163C3.70055 13.4163 2.82322 13.4198 2.1168 13.2559C1.76097 13.1731 1.38705 13.0348 1.09305 12.784C0.93019 12.6474 0.799897 12.4762 0.71169 12.2829C0.623483 12.0895 0.579589 11.8788 0.583216 11.6663C0.583216 11.3747 0.639216 11.0935 0.792049 10.845C0.946049 10.5953 1.16305 10.4349 1.38297 10.3241C1.59472 10.2179 1.83563 10.1433 2.0678 10.0797C2.18622 10.047 2.31397 10.0155 2.4423 9.98167C2.5718 9.94842 2.70655 9.91284 2.84772 9.87376L2.84947 9.87317C4.26113 9.48409 5.36188 8.62951 6.03097 7.55501C5.85758 7.49764 5.67931 7.45625 5.49838 7.43134C4.59655 7.30709 3.5588 7.55384 2.62255 8.08934C2.55596 8.12951 2.48201 8.15596 2.40505 8.16714C2.32809 8.17831 2.24968 8.17398 2.17442 8.15441C2.09915 8.13484 2.02856 8.10042 1.9668 8.05316C1.90503 8.00591 1.85334 7.94679 1.81475 7.87927C1.77617 7.81175 1.75148 7.7372 1.74213 7.66C1.73278 7.58279 1.73896 7.5045 1.76031 7.42972C1.78165 7.35494 1.81774 7.28519 1.86644 7.22456C1.91514 7.16393 1.97547 7.11365 2.04388 7.07667C3.1493 6.44492 4.44488 6.10892 5.65763 6.27634C5.9563 6.31717 6.24738 6.39009 6.52738 6.49392C6.83452 5.55897 6.83616 4.55053 6.53205 3.61459V3.61167C6.34597 3.02776 6.22288 2.36334 6.29813 1.80917C6.33605 1.52801 6.4323 1.21942 6.65513 0.973841C6.8943 0.710174 7.22097 0.583008 7.58322 0.583008ZM7.02905 8.15759C6.20188 9.48759 4.84972 10.5323 3.15863 10.9984V10.9973C3.01762 11.0365 2.87625 11.0744 2.73455 11.111C2.60213 11.1454 2.48488 11.1752 2.37638 11.2049C2.15472 11.2662 2.00888 11.3158 1.90797 11.3659C1.81463 11.4126 1.79247 11.4447 1.78547 11.4569C1.7773 11.4698 1.74988 11.5211 1.74988 11.6663C1.74988 11.7818 1.7843 11.8408 1.8508 11.8973C1.94063 11.9749 2.10747 12.0548 2.38047 12.119C2.93055 12.2462 3.6603 12.2497 4.38072 12.2497C6.57813 12.2497 8.32988 10.9518 9.23697 9.01101C8.95643 9.05308 8.68457 9.14035 8.43196 9.26942C8.36331 9.30443 8.28841 9.3255 8.21157 9.33142C8.13473 9.33734 8.05749 9.328 7.98428 9.30392C7.91107 9.27984 7.84335 9.24151 7.78503 9.19114C7.72671 9.14077 7.67894 9.07935 7.64447 9.01042C7.48949 8.69311 7.28135 8.40467 7.02905 8.15759ZM7.53538 1.75259L7.51963 1.75784C7.51263 1.76542 7.47413 1.81734 7.45372 1.96609C7.41288 2.27059 7.4788 2.74134 7.6433 3.25934C8.04886 4.50337 8.02006 5.84823 7.56163 7.07376C7.88013 7.32634 8.1683 7.63842 8.41622 8.01467C8.81869 7.87922 9.24108 7.81237 9.66572 7.81692C9.82905 7.19334 9.91655 6.52717 9.91655 5.83301C9.91655 5.20476 9.68263 4.12734 9.22413 3.21501C8.7458 2.26242 8.16363 1.74967 7.58322 1.74967C7.5672 1.74943 7.55119 1.7506 7.53538 1.75317V1.75259Z" fill="#A3A3A3"/>
</g>
<defs>
<clipPath id="clip0_13353_6888">
<rect width="14" height="14" fill="white"/>
</clipPath>
</defs>
</svg>
